<?xml version="1.0" ?>
<!-- Uploaded to: SVG Repo, www.svgrepo.com, Generator: SVG Repo Mixer Tools -->
<svg width="800px" height="800px" viewBox="0 0 32 32" xmlns="http://www.w3.org/2000/svg">
<defs>
<style>.cls-1{fill:#231f20;}</style>
</defs>
<g id="cc">
<path class="cls-1" d="M14,23H6a3,3,0,0,1-3-3V13a3,3,0,0,1,3-3h8a1,1,0,0,1,0,2H6a1,1,0,0,0-1,1v7a1,1,0,0,0,1,1h8a1,1,0,0,1,0,2Z"/>
<path class="cls-1" d="M28,23H20a3,3,0,0,1-3-3V13a3,3,0,0,1,3-3h8a1,1,0,0,1,0,2H20a1,1,0,0,0-1,1v7a1,1,0,0,0,1,1h8a1,1,0,0,1,0,2Z"/>
</g>
</svg>